<?xml version="1.0" standalone="no"?>
<!DOCTYPE svg PUBLIC "-//W3C//DTD SVG 20010904//EN"
 "http://www.w3.org/TR/2001/REC-SVG-20010904/DTD/svg10.dtd">
<svg version="1.0" xmlns="http://www.w3.org/2000/svg"
 width="2000.000000pt" height="2000.000000pt" viewBox="0 0 2000.000000 2000.000000"
 preserveAspectRatio="xMidYMid meet">

<g transform="translate(0.000000,2000.000000) scale(0.100000,-0.100000)"
fill="#000000" stroke="none">
<path d="M9596 15555 c17 -45 2 -140 -59 -369 -35 -132 -69 -242 -75 -244 -7
-2 -12 1 -12 8 0 6 -59 122 -132 258 -78 148 -132 260 -133 280 -3 38 0 37
-67 28 l-52 -7 29 -23 c19 -15 85 -129 189 -326 89 -166 166 -302 171 -302 6
0 26 63 46 139 20 76 59 225 86 331 42 159 55 198 78 222 l28 29 -52 -2 c-47
-2 -51 -4 -45 -22z"/>
<path d="M10036 15566 c18 -13 19 -26 16 -163 -5 -277 -18 -451 -36 -478 -9
-13 -16 -26 -16 -28 0 -3 199 -8 415 -11 l50 -1 3 55 3 55 -38 -42 c-31 -33
-47 -42 -87 -48 -56 -9 -237 2 -249 14 -5 5 -5 81 -1 170 l7 161 106 0 c88 0
112 -3 139 -20 17 -11 32 -24 32 -30 0 -5 4 -10 9 -10 8 0 24 100 17 108 -3 2
-16 -4 -30 -13 -27 -18 -202 -33 -248 -22 l-25 7 4 117 c2 65 6 133 9 152 l5
34 97 -7 c151 -10 185 -24 234 -96 17 -25 17 -24 13 35 l-3 60 -104 6 c-57 4
-157 7 -222 8 -106 1 -118 -1 -100 -13z"/>
<path d="M10896 15503 c14 -31 7 -89 -45 -353 -42 -214 -54 -258 -72 -273 -12
-10 -20 -19 -18 -21 2 -2 30 -11 62 -19 54 -14 58 -14 52 1 -17 40 -16 60 10
197 l28 145 36 -6 c70 -11 100 -26 133 -63 35 -38 39 -51 80 -226 21 -91 26
-101 57 -122 19 -13 43 -23 55 -23 20 0 20 0 -2 16 -30 20 -45 60 -66 169 -24
122 -46 167 -97 204 -40 30 -41 31 -15 31 92 0 163 49 187 129 10 33 9 44 -7
77 -11 21 -37 51 -59 66 -40 27 -182 70 -279 83 -45 6 -48 5 -40 -12z m219
-51 c73 -35 105 -75 105 -133 0 -114 -72 -159 -220 -137 -41 6 -77 12 -79 14
-2 2 9 69 25 150 l29 146 37 -5 c21 -3 67 -19 103 -35z"/>
<path d="M8385 15349 c-223 -79 -297 -322 -162 -536 110 -175 369 -192 530
-35 79 76 92 110 91 227 0 86 -4 108 -26 157 -34 73 -99 143 -162 175 -72 36
-188 42 -271 12z m181 -30 c73 -28 169 -121 207 -201 77 -166 38 -313 -103
-386 -59 -31 -71 -33 -135 -30 -47 2 -86 11 -118 27 -86 42 -168 140 -204 243
-18 53 -18 166 0 209 54 130 211 191 353 138z"/>
<path d="M11740 15321 c0 -6 5 -13 11 -17 21 -13 2 -88 -79 -304 -103 -276
-107 -286 -134 -304 -22 -15 -22 -16 15 -31 20 -8 44 -15 53 -15 15 0 15 2 0
25 -9 13 -16 32 -16 40 0 9 34 109 76 223 42 114 82 227 88 252 19 68 7 99
177 -480 33 -113 64 -209 68 -213 5 -5 32 56 61 135 29 79 75 204 102 278 27
74 63 156 79 183 34 56 33 52 12 54 -10 1 -31 5 -47 9 l-28 7 16 -26 c22 -32
18 -47 -75 -302 -100 -273 -86 -258 -124 -135 -18 58 -66 217 -106 353 l-73
249 -34 14 c-41 17 -42 17 -42 5z"/>
<path d="M7549 15026 c-74 -21 -168 -76 -205 -121 -57 -71 -78 -129 -78 -220
1 -147 72 -270 195 -333 61 -32 68 -34 149 -30 71 4 95 10 147 36 86 44 125
82 164 157 l34 64 -40 81 c-22 45 -45 85 -51 90 -6 6 -25 -1 -50 -18 l-39 -27
29 -5 c23 -4 37 -18 65 -65 41 -71 43 -106 8 -162 -46 -73 -126 -113 -227
-113 -134 0 -249 84 -331 240 -18 35 -23 62 -23 120 -1 66 3 82 30 130 34 59
100 112 162 130 62 17 143 12 186 -11 21 -11 40 -19 42 -17 1 2 -7 23 -18 46
-20 39 -24 42 -62 41 -23 0 -62 -6 -87 -13z"/>
<path d="M12644 14935 c9 -36 -14 -84 -164 -335 -111 -188 -132 -218 -150
-213 -11 3 -20 1 -20 -5 0 -12 62 -62 76 -62 5 0 8 19 6 43 -3 36 5 57 60 152
123 212 191 326 200 331 4 3 8 -101 8 -231 0 -188 3 -237 13 -241 14 -5 83 29
310 153 65 36 121 63 123 60 5 -4 -208 -372 -258 -444 -19 -28 -37 -43 -51
-43 -21 -1 -20 -2 8 -26 17 -13 43 -31 59 -39 28 -14 28 -14 22 11 -8 30 20
86 172 339 82 137 117 186 146 204 l37 25 -23 13 c-36 20 -48 16 -154 -41
-206 -111 -319 -171 -331 -174 -10 -3 -13 30 -13 140 0 149 -8 328 -15 364 -3
11 -16 26 -30 32 -36 16 -38 15 -31 -13z"/>
<path d="M13573 14330 c6 -25 -18 -59 -174 -242 -155 -182 -208 -237 -238
-249 -21 -8 -22 -12 -10 -23 88 -80 324 -272 338 -274 10 -2 30 14 51 39 25
31 29 40 14 34 -35 -15 -101 -17 -127 -3 -35 18 -182 139 -196 160 -9 14 0 30
48 90 33 40 82 98 109 128 l49 55 49 -40 c27 -22 70 -61 97 -87 39 -39 46 -52
41 -73 -8 -34 6 -31 44 8 40 41 41 58 5 51 -32 -6 -66 14 -166 99 l-64 54 94
109 c52 60 97 110 102 112 11 4 155 -122 182 -159 16 -23 23 -47 23 -85 1 -46
3 -51 16 -39 8 8 23 28 33 45 l18 30 -33 29 c-154 134 -295 251 -302 251 -4 0
-6 -9 -3 -20z"/>
<path d="M7056 14251 c-3 -5 -47 -37 -97 -71 -49 -34 -88 -64 -86 -67 5 -4
207 135 207 143 0 8 -19 4 -24 -5z"/>
<path d="M6180 14111 c-71 -66 -143 -130 -158 -143 l-28 -23 42 -25 c23 -14
109 -99 191 -189 187 -207 213 -239 220 -273 3 -16 7 -28 9 -28 6 0 84 77 84
83 0 2 -13 7 -29 10 -20 4 -58 38 -130 118 -55 62 -101 116 -101 120 0 11 104
108 148 138 22 15 50 24 69 24 l33 -1 -30 34 c-16 19 -30 39 -30 44 0 6 -4 10
-10 10 -5 0 -10 -10 -10 -22 0 -13 -8 -35 -18 -49 -21 -32 -156 -159 -169
-159 -16 0 -192 202 -186 214 9 20 160 149 198 168 28 15 47 18 78 13 l42 -7
-29 31 c-17 17 -36 31 -43 31 -7 0 -71 -54 -143 -119z"/>
<path d="M14203 13762 c8 -33 -28 -70 -256 -264 -139 -118 -205 -168 -222
-168 -31 0 -32 -20 -2 -48 29 -27 47 -28 40 -2 -3 12 5 32 23 53 39 46 384
340 391 333 7 -6 -145 -679 -162 -718 -14 -33 24 -20 73 25 74 68 360 309 404
340 24 18 47 27 59 24 29 -8 23 15 -14 51 -39 38 -50 40 -37 8 12 -34 -4 -53
-169 -194 -223 -192 -244 -208 -238 -187 11 37 148 640 154 676 4 29 0 41 -22
65 -25 27 -26 28 -22 6z"/>
<path d="M5493 13380 c-39 -45 -40 -50 -9 -50 28 0 61 -24 266 -193 181 -150
230 -196 230 -220 0 -10 5 -15 10 -12 15 9 261 305 267 321 5 13 -55 79 -64
71 -2 -2 1 -17 7 -32 17 -43 3 -79 -60 -163 -74 -99 -93 -116 -119 -107 -12 3
-77 52 -144 108 -68 56 -167 138 -221 182 -69 57 -99 88 -103 108 -7 36 -21
33 -60 -13z"/>
<path d="M14738 13023 c-38 -19 -35 -33 6 -33 19 0 45 -9 60 -21 36 -29 90
-109 80 -119 -5 -5 -124 -79 -264 -165 -214 -131 -260 -156 -287 -153 l-32 4
26 -48 c32 -59 53 -79 53 -51 0 11 10 29 23 41 21 19 483 307 511 318 8 3 26
-19 45 -56 33 -62 36 -86 16 -149 -7 -21 -6 -22 11 -12 10 6 29 18 41 28 l22
18 -74 120 c-41 66 -98 159 -127 208 -55 91 -63 96 -110 70z"/>
<path d="M5115 12834 c-48 -80 -98 -161 -111 -180 l-23 -34 27 0 c47 0 496
-269 549 -329 24 -27 32 -32 33 -18 0 9 51 101 112 204 62 102 108 188 102
190 -6 2 -26 15 -45 29 -39 28 -47 19 -24 -26 24 -46 11 -91 -58 -207 -46 -78
-66 -103 -81 -103 -24 1 -255 140 -269 162 -7 10 3 35 33 83 66 109 88 135
116 135 13 0 24 4 24 9 0 10 -64 61 -77 61 -4 0 -8 -20 -9 -43 -1 -33 -14 -67
-56 -140 l-55 -97 -126 75 c-70 42 -127 81 -127 88 0 14 63 118 103 170 35 45
55 57 116 66 l46 7 -42 22 c-23 12 -48 22 -56 22 -8 0 -54 -65 -102 -146z"/>
<path d="M9220 12270 c-189 -15 -395 -77 -528 -161 -213 -134 -335 -323 -361
-561 -27 -236 39 -429 197 -580 134 -128 277 -206 697 -379 264 -108 475 -214
475 -238 0 -5 -29 -39 -64 -76 -140 -146 -264 -357 -330 -563 -37 -115 -76
-312 -76 -383 0 -47 0 -47 -118 -18 -309 75 -568 300 -728 631 -25 51 -53 109
-62 128 -18 36 -46 51 -55 28 -5 -14 11 -550 18 -583 3 -13 36 -39 92 -71 211
-123 438 -196 718 -233 l130 -17 2 -69 c14 -433 190 -826 482 -1078 428 -370
1125 -474 1671 -250 222 91 413 225 551 385 l59 69 -2 402 -3 402 -270 2
c-148 2 -276 -1 -284 -6 -23 -15 -4 -41 43 -62 93 -41 136 -98 155 -205 5 -32
13 -186 17 -341 l7 -282 -29 -48 c-86 -148 -273 -274 -481 -324 -165 -40 -393
-25 -581 37 -463 153 -827 622 -947 1218 -14 71 -25 142 -23 159 3 28 8 32 63
47 279 79 513 279 606 517 99 254 74 486 -75 686 -30 41 -60 78 -66 82 -16 10
112 68 220 99 299 86 647 44 919 -110 176 -99 346 -274 430 -441 24 -48 36
-63 53 -63 l21 0 -7 253 c-4 138 -12 257 -17 263 -19 23 -158 84 -270 117
-229 70 -588 116 -784 102 -205 -15 -423 -68 -574 -138 l-54 -26 -71 48 c-125
84 -217 129 -575 280 -378 160 -480 212 -599 307 -93 75 -143 139 -185 236
-28 68 -30 82 -30 188 0 124 16 187 69 278 73 123 203 214 374 259 96 25 325
22 445 -5 183 -43 316 -115 446 -242 89 -87 163 -189 217 -297 18 -34 37 -65
43 -69 23 -14 37 25 33 89 -2 34 -7 142 -10 241 l-6 178 -83 39 c-266 125
-568 174 -905 149z m665 -2062 c36 -40 74 -98 103 -158 l47 -95 -1 -105 c0
-120 -19 -197 -66 -275 -69 -113 -166 -195 -291 -245 -41 -16 -80 -30 -85 -30
-19 0 -25 115 -14 269 15 192 60 373 132 526 47 100 94 175 110 175 5 0 34
-28 65 -62z"/>
<path d="M4807 12211 c-18 -17 -49 -60 -67 -97 -66 -128 -49 -243 42 -294 84
-47 145 -25 282 101 95 87 134 109 192 109 29 0 44 -8 75 -39 37 -36 39 -42
39 -98 0 -53 -4 -66 -38 -114 -45 -65 -96 -95 -175 -104 -62 -8 -64 -17 -7
-33 19 -5 43 -13 52 -17 27 -11 112 76 151 154 75 153 12 305 -128 305 -63 0
-97 -20 -208 -123 -94 -87 -146 -115 -195 -106 -48 9 -77 30 -96 70 -23 47
-20 83 10 144 32 63 77 101 146 122 l53 16 -39 16 c-50 22 -50 22 -89 -12z"/>
<path d="M15206 11404 c41 -73 102 -293 120 -427 46 -353 -36 -535 -399 -880
-102 -97 -169 -168 -192 -207 l-36 -60 -37 15 c-85 36 -272 38 -367 4 -32 -12
-36 -11 -73 23 -47 42 -109 55 -187 38 -28 -6 -123 -47 -212 -91 -187 -94
-193 -101 -111 -149 124 -70 370 -85 480 -29 45 23 78 81 78 137 0 37 2 40 39
51 57 16 236 23 296 11 73 -15 82 -23 68 -57 -6 -15 -21 -53 -33 -83 -13 -30
-27 -66 -32 -78 -8 -23 -10 -23 -33 -8 -55 36 -138 15 -259 -69 -82 -56 -130
-74 -193 -75 -34 0 -44 -18 -20 -38 30 -25 187 -86 232 -90 52 -4 132 23 195
68 15 11 31 20 35 20 3 0 5 -23 3 -52 -3 -50 -5 -53 -47 -78 -125 -72 -184
-295 -118 -442 14 -32 28 -58 31 -58 3 0 32 33 65 73 148 182 185 312 117 414
-26 39 -27 47 -21 110 13 140 44 253 107 380 50 102 73 136 140 207 44 47 85
86 92 86 7 0 18 -11 24 -25 14 -31 15 -48 3 -40 -5 3 -25 -4 -45 -16 -46 -27
-72 -92 -69 -173 1 -47 10 -75 39 -133 21 -40 48 -83 61 -94 l22 -21 45 93
c78 166 80 259 6 340 -22 22 -42 54 -45 70 -6 27 1 37 79 115 47 47 108 116
136 152 58 77 143 243 162 318 11 43 13 3 12 -295 -1 -190 -5 -422 -9 -516 -6
-154 -57 -650 -67 -660 -2 -3 -19 -1 -36 5 -88 25 -203 -34 -301 -152 -62 -75
-121 -173 -121 -202 0 -28 45 -28 151 -2 110 27 199 64 236 99 13 11 26 18 29
15 5 -6 -17 -124 -36 -193 -5 -16 -14 -57 -21 -90 -6 -33 -19 -74 -28 -92 -24
-48 -416 -413 -443 -413 -3 0 -5 6 -5 13 0 6 -6 31 -12 55 -27 95 -127 162
-244 162 -38 0 -123 5 -189 11 -86 9 -122 9 -130 1 -14 -14 134 -169 212 -221
69 -46 88 -55 174 -85 l68 -24 -98 -47 c-55 -26 -108 -50 -119 -55 -48 -19
-301 -64 -315 -55 -3 2 -51 9 -107 14 -55 6 -106 13 -114 16 -8 3 -35 35 -62
70 -111 151 -254 202 -393 140 -68 -30 -254 -162 -254 -180 0 -21 26 -36 92
-51 35 -8 110 -37 168 -64 98 -46 111 -50 190 -51 125 -2 156 6 208 58 l44 45
123 -9 c67 -5 149 -6 181 -3 33 4 60 6 62 5 2 -1 -20 -19 -48 -39 -51 -37 -52
-37 -78 -19 -63 41 -166 -26 -228 -149 -29 -57 -77 -235 -70 -255 10 -24 42
-13 143 50 189 116 243 194 208 304 -6 18 3 28 56 64 59 40 136 75 145 66 3
-2 -3 -21 -11 -42 -32 -74 -36 -280 -9 -367 7 -24 34 -23 34 1 0 10 21 47 48
81 109 144 126 174 146 261 12 52 13 67 2 93 -7 17 -13 36 -14 41 0 9 37 32
124 79 11 6 43 30 70 52 27 22 67 53 89 69 22 16 108 94 192 173 84 79 153
142 153 140 -2 -30 -130 -452 -160 -523 -4 -11 -36 -92 -71 -180 -34 -88 -63
-161 -64 -163 -1 -1 -15 4 -31 13 -33 17 -113 20 -164 5 -19 -6 -64 -35 -100
-66 -36 -31 -91 -74 -122 -97 -64 -45 -72 -64 -30 -72 15 -3 43 -10 63 -15 61
-16 221 37 293 97 16 13 30 22 33 19 6 -6 -154 -326 -183 -363 -32 -42 -146
-112 -283 -173 -110 -50 -146 -61 -124 -39 8 8 6 24 -7 59 -36 99 -62 133
-143 187 -43 29 -84 50 -91 47 -16 -6 -12 -113 6 -174 12 -41 50 -103 86 -142
14 -15 23 -30 20 -34 -9 -8 -162 -44 -249 -59 l-77 -12 1 33 c1 39 -56 130
-105 167 -36 27 -96 59 -198 106 -36 17 -75 38 -87 47 -22 16 -23 16 -23 -8 0
-38 82 -197 135 -261 27 -32 59 -60 74 -64 20 -5 10 -9 -49 -19 -41 -6 -109
-14 -150 -18 l-76 -7 -121 69 c-66 38 -143 77 -169 86 -79 26 -158 45 -167 39
-4 -2 -27 13 -51 35 -56 51 -78 63 -153 78 -55 12 -68 11 -130 -6 -111 -31
-218 -77 -218 -93 0 -23 83 -87 155 -120 135 -62 280 -42 358 49 l37 44 95
-28 c63 -18 135 -50 209 -92 l114 -63 -129 -32 -129 -32 -68 22 -68 23 -79
-27 c-51 -18 -93 -40 -119 -64 -22 -20 -57 -45 -79 -56 -40 -20 -69 -48 -60
-57 3 -3 18 -7 34 -10 16 -3 54 -12 85 -20 31 -7 93 -14 136 -14 67 0 88 4
133 28 59 30 84 58 105 118 14 41 6 37 145 75 19 6 105 19 190 29 85 11 169
22 185 25 19 4 1 -9 -50 -38 -64 -35 -216 -127 -317 -192 -46 -30 -180 -135
-223 -176 -35 -33 -62 -49 -90 -54 -22 -4 -53 -14 -68 -22 -35 -18 -154 -137
-173 -174 -10 -20 -64 -218 -64 -235 0 -12 30 2 91 41 39 25 105 63 148 84
122 62 175 136 157 223 -3 18 -14 40 -23 51 -17 18 -16 20 23 55 144 131 261
200 195 116 -31 -39 -28 -105 10 -200 42 -105 48 -112 71 -84 10 12 18 29 18
37 0 8 7 27 15 44 28 53 57 187 45 208 -5 11 -10 31 -10 44 0 29 -23 52 -45
43 -27 -10 -16 8 18 30 95 62 219 135 272 161 52 25 69 29 125 25 63 -3 181
13 305 42 142 33 231 59 252 72 12 8 50 24 85 38 77 29 209 95 262 131 21 14
40 25 41 23 11 -11 -238 -399 -353 -551 l-73 -98 -22 33 c-49 71 -164 123
-277 122 -87 0 -103 -7 -266 -114 -58 -39 -111 -70 -117 -70 -29 0 34 -39 88
-54 147 -42 196 -49 291 -38 87 10 181 40 215 69 17 14 49 18 49 6 0 -14 -195
-235 -333 -378 l-135 -140 -29 32 c-81 92 -169 130 -265 113 -31 -6 -83 -20
-115 -31 -88 -32 -194 -59 -229 -59 -37 0 -61 -22 -42 -37 7 -6 51 -31 98 -56
83 -44 185 -79 265 -91 74 -11 245 49 245 86 0 5 -17 0 -37 -12 -46 -27 -130
-50 -181 -50 -35 1 -106 16 -180 39 -17 5 -67 29 -109 52 l-78 43 80 12 c44 7
109 24 144 39 82 34 162 47 227 37 39 -7 66 -20 112 -57 66 -51 72 -69 19 -55
-55 14 -143 23 -132 13 13 -12 114 -37 143 -35 12 1 22 -2 22 -6 0 -37 -489
-428 -626 -500 -26 -14 -300 -18 -389 -6 -82 11 -180 47 -213 78 -49 46 -110
176 -131 281 -10 50 -17 91 -16 93 8 9 86 -42 138 -88 78 -71 109 -133 111
-224 2 -100 -18 -99 -66 4 -20 44 -42 80 -47 80 -13 0 -7 -20 32 -101 29 -60
36 -67 66 -73 19 -3 36 -4 38 -2 2 1 4 32 4 67 2 133 -55 227 -194 320 -49 32
-93 59 -98 59 -14 0 -11 -59 7 -141 20 -88 73 -209 116 -263 24 -30 27 -37 12
-32 -11 3 -75 19 -143 36 -97 23 -130 36 -157 60 -86 75 -185 96 -294 62 -36
-11 -96 -31 -134 -46 -38 -14 -88 -28 -112 -32 -24 -3 -44 -10 -44 -14 0 -23
200 -142 270 -161 72 -19 160 -22 204 -8 78 25 140 77 159 132 1 5 63 -8 137
-28 320 -85 320 -85 488 -86 87 0 165 -4 175 -8 15 -5 -2 -21 -85 -76 -198
-132 -737 -445 -766 -445 -7 0 -12 6 -12 14 0 50 -111 116 -198 116 -53 0
-243 -20 -251 -26 -2 -2 9 -14 25 -26 16 -13 47 -39 69 -59 49 -45 125 -69
219 -69 l71 0 -165 -91 c-164 -91 -256 -139 -263 -139 -2 0 -12 20 -21 44 -21
55 -82 111 -136 126 -64 17 -190 29 -242 23 -86 -10 -85 -37 4 -118 65 -59
137 -93 225 -107 38 -6 71 -14 75 -17 4 -4 -44 -32 -107 -64 -99 -50 -117 -56
-136 -46 -69 36 -385 -55 -480 -139 -56 -49 -159 -209 -159 -247 0 -20 9 -19
67 6 39 18 72 22 178 25 166 4 241 18 307 58 65 39 103 92 137 193 27 77 27
78 91 116 36 20 68 37 72 37 4 0 -4 -26 -17 -57 -35 -89 -37 -111 -16 -183 25
-86 64 -180 74 -180 9 0 66 120 92 195 10 28 20 85 23 128 4 71 2 80 -21 116
l-26 39 177 97 c97 54 211 115 252 138 41 22 87 49 103 59 l27 19 0 -27 c0
-27 -26 -220 -35 -261 -5 -19 -9 -21 -31 -13 -62 24 -135 2 -195 -59 -54 -55
-121 -203 -100 -224 9 -9 16 -7 29 10 9 12 61 40 115 62 53 22 111 50 129 62
l31 22 -7 -62 c-10 -88 -20 -107 -63 -130 -115 -58 -146 -205 -79 -366 7 -16
18 -42 24 -58 11 -26 42 -38 42 -16 0 7 19 41 41 77 63 100 109 202 109 243 0
43 -24 105 -52 135 -17 19 -18 27 -9 60 18 69 66 406 74 514 2 32 8 38 77 79
41 24 134 79 206 122 72 43 140 82 150 86 16 6 16 4 -3 -28 -33 -53 -53 -136
-53 -216 0 -89 28 -195 50 -191 8 2 16 12 18 23 2 11 36 65 77 120 78 104 105
163 105 226 0 64 -36 127 -66 115 -15 -6 -15 -8 -2 -19 8 -6 23 -26 33 -44 35
-60 -7 -164 -124 -310 -23 -29 -45 -53 -50 -53 -16 0 -23 141 -11 209 15 84
68 191 93 191 21 0 21 -3 1 -129 -10 -62 9 -45 26 23 7 30 10 72 7 94 -8 48
-17 39 188 177 88 59 168 114 178 123 25 22 30 11 12 -31 -33 -79 -48 -268
-41 -523 l7 -241 -68 -5 c-159 -12 -282 -123 -333 -302 -18 -62 -18 -66 -1
-66 9 0 30 13 45 28 29 32 79 55 200 98 50 17 94 40 118 62 l38 34 0 -93 c0
-94 -15 -206 -46 -331 -14 -59 -19 -68 -39 -68 -29 0 -68 -31 -105 -85 -40
-58 -42 -144 -5 -223 14 -30 25 -63 25 -73 0 -38 37 -13 67 44 9 18 33 58 55
90 49 72 59 135 33 202 -17 47 -17 66 5 160 7 28 15 77 19 110 7 55 8 57 16
30 22 -79 88 -197 138 -243 l24 -23 0 206 1 206 -32 47 c-19 30 -46 54 -73 67
-23 11 -44 29 -48 40 -10 32 -26 493 -19 580 7 93 29 230 46 287 13 44 22 52
205 188 67 50 125 95 128 100 3 6 10 10 15 10 5 0 -2 -25 -15 -55 -69 -156
-68 -325 2 -465 38 -74 64 -95 71 -55 5 29 65 199 97 275 39 94 45 199 13 260
-21 42 -43 59 -93 75 -18 6 -13 13 35 53 30 26 120 111 199 190 80 78 146 142
148 142 1 0 -1 -9 -5 -21 -13 -35 5 -146 33 -202 15 -29 51 -84 81 -124 53
-71 88 -101 98 -85 10 16 8 248 -2 298 -21 102 -75 204 -108 204 -20 0 -17
-14 7 -36 56 -50 89 -190 88 -369 l0 -70 -43 48 c-61 68 -113 161 -127 226
-13 63 -6 139 16 160 17 17 15 22 41 -97 9 -46 21 -85 25 -88 14 -8 21 17 11
44 -5 15 -18 62 -27 105 -18 76 -18 78 1 101 10 14 69 85 129 158 61 74 144
180 185 236 71 96 75 100 82 74 5 -24 14 -377 21 -870 l2 -154 -41 -3 c-55 -4
-133 -45 -175 -92 -36 -40 -117 -208 -106 -220 8 -7 38 7 86 42 19 14 60 35
92 46 41 15 71 35 100 66 22 25 42 43 44 41 2 -2 0 -33 -4 -70 -5 -53 -13 -74
-33 -95 -50 -54 -68 -94 -68 -156 0 -86 67 -272 98 -272 7 0 24 27 38 60 14
33 37 87 51 120 21 50 24 71 21 140 -3 74 -6 83 -38 123 l-35 43 -2 199 -2
199 52 -21 c113 -43 218 -102 259 -145 l28 -29 -22 -43 c-19 -39 -20 -48 -9
-90 13 -50 49 -103 86 -127 28 -18 147 -60 199 -69 34 -7 36 -6 36 18 0 14
-10 56 -21 93 -50 163 -115 234 -213 234 -24 0 -48 12 -85 42 l-53 43 30 12
c59 24 93 87 117 219 19 98 14 116 -24 80 -14 -13 -58 -41 -98 -60 -86 -43
-122 -85 -125 -144 -1 -39 -3 -41 -27 -35 -79 19 -115 38 -123 68 -13 47 -28
359 -17 370 6 5 9 5 9 -2 0 -48 110 -57 257 -22 48 11 103 27 122 35 44 19 38
25 -93 93 -110 57 -151 63 -206 30 -47 -28 -80 -60 -80 -76 0 -8 23 4 56 29
66 50 106 55 169 21 22 -11 64 -33 94 -49 l54 -28 -54 -13 c-30 -8 -67 -18
-84 -23 -87 -27 -238 -20 -220 11 4 6 13 8 20 5 14 -5 98 24 112 38 4 5 -10 5
-32 1 -22 -4 -60 -8 -85 -9 l-45 -1 -3 239 -2 238 75 113 c41 62 75 115 75
118 0 3 27 49 60 104 33 54 60 103 60 108 0 6 9 21 19 35 l19 25 7 -27 c4 -15
4 -36 0 -47 -10 -33 37 -124 97 -188 72 -77 200 -176 208 -163 13 20 2 210
-15 282 -35 145 -107 238 -184 238 -34 0 -71 -19 -71 -36 0 -13 84 -175 96
-185 25 -20 16 23 -12 65 -27 39 -58 125 -49 134 10 10 77 -11 103 -33 30 -25
82 -122 82 -152 0 -11 4 -23 9 -28 11 -12 32 -211 24 -231 -3 -8 -8 -14 -12
-14 -13 0 -153 127 -191 173 -22 27 -44 66 -50 87 -11 40 -9 194 3 206 4 4 7
13 7 21 0 7 33 84 74 170 85 181 117 254 152 350 56 153 123 343 149 428 15
50 30 94 33 98 2 5 39 -54 82 -130 l79 -138 -35 -28 c-19 -16 -54 -56 -77 -90
-73 -103 -83 -149 -63 -288 12 -82 36 -159 51 -159 3 0 14 19 26 42 12 24 44
76 71 117 64 96 85 139 103 204 7 28 14 43 14 32 1 -12 6 -26 12 -32 15 -15
33 -305 25 -394 l-7 -76 -39 -17 c-50 -22 -95 -76 -120 -143 -17 -46 -18 -63
-10 -128 15 -117 76 -341 101 -369 18 -20 63 43 130 179 68 139 69 140 70 230
3 115 -12 166 -62 216 l-39 39 -1 158 c0 86 -4 179 -8 205 -5 31 -4 46 2 44 6
-2 37 -47 69 -100 l59 -96 -17 -51 c-39 -121 37 -285 199 -430 83 -75 124
-103 132 -90 3 5 4 40 1 78 -3 37 -8 96 -11 132 -12 152 -41 241 -99 303 -33
36 -101 67 -148 67 -28 0 -40 5 -49 23 -7 12 -37 63 -69 112 -31 50 -76 124
-99 165 -163 285 -207 360 -233 402 l-29 47 26 113 c15 62 32 136 40 163 l13
50 1 -39 c1 -27 12 -55 35 -90 56 -84 113 -132 211 -176 50 -23 98 -45 107
-50 10 -6 21 -10 24 -10 13 0 -6 61 -31 98 -13 21 -36 66 -50 101 -34 88 -68
143 -111 180 -35 31 -40 33 -103 29 -79 -3 -76 -20 -33 187 30 145 72 433 72
497 0 28 3 26 30 -29 17 -34 53 -81 81 -108 50 -47 205 -129 222 -118 14 9 -1
149 -24 228 -23 80 -77 161 -116 176 -15 6 -58 11 -97 11 l-69 2 7 180 c3 100
9 259 13 354 l6 173 17 -48 c40 -114 135 -262 255 -399 84 -96 156 -223 188
-334 37 -123 47 -159 72 -258 l25 -102 -39 -38 c-30 -29 -41 -49 -50 -92 -10
-49 -9 -64 10 -125 27 -88 52 -126 130 -201 73 -69 108 -92 118 -75 4 6 6 99
6 208 -1 165 -4 203 -18 229 -21 41 -69 81 -106 89 -29 6 -30 9 -66 157 -20
83 -47 180 -60 217 l-24 66 27 -35 c14 -19 47 -54 72 -77 l45 -42 1 -79 c1
-49 8 -90 17 -109 21 -40 86 -97 144 -126 63 -32 283 -110 291 -103 8 8 -13
76 -60 195 -69 173 -164 265 -273 265 -32 0 -62 -6 -77 -16 -26 -17 -26 -17
-85 45 -67 70 -90 102 -127 171 -32 60 -33 71 -3 52 29 -18 138 -36 213 -35
77 1 229 39 229 58 0 7 -28 24 -62 38 -34 14 -87 46 -118 73 -53 48 -127 80
-180 80 -44 0 -119 -34 -155 -70 l-38 -38 -39 42 c-109 115 -198 257 -253 406
-24 65 -33 106 -36 175 -2 50 -1 103 2 118 l6 28 49 -36 c55 -40 59 -41 59
-20 0 8 -13 21 -29 30 -55 28 -75 85 -30 85 37 0 110 -43 143 -84 50 -61 126
-182 126 -200 0 -9 -8 -16 -18 -16 -30 0 -192 106 -249 163 -40 39 -53 47 -53
33 0 -11 19 -36 41 -57 62 -57 204 -149 241 -156 18 -3 40 -10 50 -14 24 -13
31 15 13 56 -7 19 -35 67 -60 107 -99 154 -184 211 -268 179 -32 -12 -34 -4
-47 172 -14 183 -25 240 -76 407 -31 103 -61 168 -84 180 -30 16 -31 12 -4
-36z m-165 -1477 c5 -64 3 -106 -4 -142 -9 -44 -66 -175 -76 -175 -13 0 -73
111 -83 152 -12 52 -3 144 17 175 8 12 25 27 36 34 22 11 22 11 15 -72 -6 -63
-5 -81 4 -73 9 9 29 110 30 152 0 23 60 -27 61 -51z m962 -21 c18 -7 54 -32
81 -55 26 -23 71 -54 99 -68 l52 -26 -65 -14 c-115 -24 -153 -25 -240 -9 -98
19 -133 33 -149 58 -10 17 -6 18 78 18 50 0 93 5 96 10 7 12 3 12 -107 10 -49
-1 -88 2 -88 7 0 13 40 49 75 67 37 19 125 21 168 2z m-1856 -21 c48 -14 93
-48 76 -58 -4 -3 -42 -15 -83 -27 -85 -25 -170 -65 -170 -80 0 -14 3 -13 62
14 45 20 102 41 202 73 17 6 19 2 13 -37 -12 -90 -64 -125 -201 -135 -106 -8
-224 10 -299 45 -71 33 -75 44 -23 64 25 10 90 42 146 73 55 30 127 61 158 68
31 7 60 13 63 14 3 0 28 -6 56 -14z m412 -286 c25 -9 31 -17 31 -39 0 -50 -6
-55 -58 -52 -51 4 -102 -11 -102 -29 0 -6 6 -9 14 -6 8 3 43 9 78 13 l63 7
-28 -31 c-36 -38 -142 -92 -193 -99 -30 -4 -58 4 -124 31 -46 20 -91 36 -100
37 -8 0 14 10 50 22 36 12 101 46 145 76 107 74 163 91 224 70z m947 -34 c34
-7 83 -53 108 -102 19 -39 42 -137 49 -215 l5 -56 -71 38 c-132 71 -198 146
-211 241 -11 77 1 87 43 33 26 -34 37 -42 39 -31 2 10 -10 34 -27 54 -28 34
-29 38 -14 45 10 3 25 5 33 3 8 -2 29 -6 46 -10z m718 -139 c29 -19 63 -48 75
-65 41 -57 140 -295 128 -307 -10 -10 -262 98 -306 131 -66 48 -83 77 -89 152
-7 85 7 83 98 -14 40 -43 79 -82 87 -86 32 -19 -11 39 -89 119 -43 44 -78 83
-78 86 0 9 29 16 78 17 33 1 55 -7 96 -33z m-1657 -158 c-5 -21 -39 -135 -54
-182 -4 -13 -2 -17 7 -14 16 5 44 84 54 151 13 84 46 47 46 -52 0 -49 -6 -71
-36 -128 -20 -37 -61 -99 -92 -137 -62 -78 -63 -78 -87 28 -18 77 -14 114 22
206 26 70 50 102 98 131 39 25 49 24 42 -3z m718 -130 c-9 -42 -13 -48 -31
-48 -23 0 -127 -55 -148 -79 -27 -29 -8 -26 46 8 46 30 112 53 121 44 10 -9
-25 -75 -51 -98 -58 -51 -128 -82 -237 -105 -22 -5 -60 -13 -84 -20 -24 -6
-46 -9 -48 -6 -7 7 37 88 75 136 117 149 193 200 300 200 l64 0 -7 -32z m766
-29 c55 -39 60 -60 57 -270 l-3 -192 -81 79 c-67 66 -85 90 -107 147 -39 98
-32 196 18 237 22 19 30 6 49 -80 9 -41 21 -82 26 -90 19 -31 20 1 0 81 -11
46 -20 90 -20 97 0 18 28 15 61 -9z m-671 -394 c39 -20 75 -70 106 -146 14
-35 39 -89 55 -121 34 -67 35 -71 12 -60 -155 75 -176 88 -216 131 -64 73
-113 182 -90 204 12 13 104 7 133 -8z m-850 -356 c83 -21 140 -86 154 -176 8
-52 -1 -54 -52 -14 -42 34 -139 73 -147 60 -3 -4 22 -21 57 -37 75 -34 110
-68 88 -83 -19 -12 -67 -6 -117 16 -125 53 -170 83 -257 167 l-91 89 165 -6
c91 -4 181 -11 200 -16z m-915 -230 c45 -22 175 -148 175 -169 0 -16 -46 -12
-187 20 -131 29 -233 39 -233 21 0 -11 36 -21 82 -21 20 0 82 -11 137 -24 55
-13 125 -28 155 -31 31 -4 56 -11 56 -15 0 -17 -62 -60 -101 -70 -97 -26 -194
-13 -304 43 -44 22 -116 50 -159 62 -44 12 -81 26 -83 31 -2 6 12 18 31 27 19
9 62 37 94 62 86 67 163 97 234 91 31 -2 78 -14 103 -27z m1689 -87 c-14 -9
-42 -156 -33 -179 7 -21 8 -18 29 75 7 28 14 52 17 52 17 0 32 -41 32 -85 1
-59 -19 -106 -86 -206 -27 -41 -59 -90 -71 -109 -24 -39 -26 -37 -42 54 -23
133 -7 216 57 304 39 54 85 102 97 102 8 0 8 -3 0 -8z m-794 -91 c33 -63 -12
-170 -140 -333 l-45 -58 -8 38 c-13 59 -2 220 19 281 15 41 26 57 51 69 18 9
35 13 38 10 3 -3 -6 -37 -20 -75 -30 -84 -31 -91 -6 -69 10 9 27 48 37 87 15
60 21 69 41 69 12 0 27 -9 33 -19z m-431 -127 c2 -2 -16 -25 -40 -51 -67 -72
-119 -139 -119 -152 0 -20 16 -12 41 22 42 59 136 157 142 150 14 -13 6 -85
-12 -121 -11 -20 -33 -50 -49 -66 -41 -38 -236 -157 -240 -145 -7 18 39 173
69 232 38 76 60 100 113 127 36 18 79 20 95 4z m714 -190 c65 -22 54 -44 -24
-44 -47 0 -63 -4 -86 -25 -28 -24 -18 -34 16 -15 27 14 101 29 101 20 0 -10
-106 -82 -150 -102 -76 -35 -209 -48 -217 -22 -2 6 24 34 59 62 35 28 80 65
101 83 39 33 96 58 133 59 11 0 41 -7 67 -16z m878 -34 c86 -24 148 -113 169
-245 17 -104 22 -265 9 -265 -6 0 -55 44 -109 98 -71 72 -106 116 -130 166
-34 69 -49 150 -36 201 6 23 9 25 22 14 17 -14 116 -207 129 -249 12 -41 48
-110 57 -110 10 0 1 38 -12 55 -5 6 -13 30 -20 55 -6 25 -41 100 -76 168 -38
72 -59 122 -52 122 7 0 29 -5 49 -10z m-258 -389 c-4 -112 -2 -160 6 -165 7
-5 11 7 12 36 2 55 7 225 8 261 1 27 1 27 27 11 46 -31 59 -69 59 -186 l0
-106 -57 -114 c-32 -62 -68 -126 -81 -142 l-24 -30 -16 45 c-9 24 -23 71 -32
104 -9 33 -22 78 -28 100 -6 21 -12 78 -12 125 0 80 2 88 34 139 29 46 71 79
103 81 3 0 4 -71 1 -159z m-1350 -45 c47 -30 61 -46 87 -100 16 -35 33 -78 36
-95 9 -45 -17 -40 -50 9 -14 22 -31 40 -36 40 -13 0 -13 0 11 -49 11 -24 18
-45 15 -48 -11 -11 -45 10 -76 49 -40 49 -58 99 -67 181 -7 70 -9 70 80 13z
m-532 -104 c48 -22 101 -55 122 -76 44 -44 79 -109 75 -139 -3 -20 -5 -19 -43
14 -57 51 -135 109 -147 109 -20 0 -1 -19 81 -84 72 -57 81 -66 58 -66 -50 0
-130 45 -181 101 -38 42 -126 191 -126 213 0 2 17 -4 38 -15 20 -10 76 -36
123 -57z m-824 -16 c68 -40 78 -61 26 -53 -47 8 -177 -3 -166 -14 4 -4 52 -9
105 -11 54 -2 98 -6 98 -9 0 -11 -34 -36 -80 -59 -33 -17 -62 -23 -110 -23
-86 0 -156 24 -232 80 l-61 45 59 25 c169 71 266 76 361 19z m1410 -142 c-3
-3 -12 -4 -19 -1 -8 3 -5 6 6 6 11 1 17 -2 13 -5z m-1209 -175 l32 -11 -90
-44 c-50 -24 -90 -48 -90 -54 0 -16 9 -13 95 29 44 22 90 43 103 46 23 7 23 7
7 -31 -22 -54 -41 -71 -102 -94 -57 -21 -120 -24 -193 -10 -25 5 -63 13 -85
17 l-40 8 35 25 c19 13 41 30 48 37 25 24 97 70 127 81 40 14 115 15 153 1z
m1039 -159 c81 -25 132 -52 162 -84 l25 -26 -85 6 c-51 4 -120 2 -172 -6 -113
-16 -116 -34 -4 -23 102 10 186 8 199 -5 12 -12 -61 -47 -147 -69 -43 -11 -87
-14 -155 -10 -93 5 -240 39 -240 56 0 4 39 35 88 68 169 117 214 129 329 93z
m-720 -15 c30 -21 40 -105 20 -171 -19 -64 -58 -154 -66 -154 -3 0 -17 26 -29
58 -30 74 -34 172 -9 199 9 11 17 28 17 38 0 16 25 44 40 45 3 0 15 -7 27 -15z
m-390 -249 c-27 -26 -107 -143 -107 -158 0 -23 23 -1 63 60 24 37 53 75 65 85
20 19 21 18 40 -20 l20 -38 -23 -51 c-26 -59 -59 -86 -165 -139 -41 -20 -89
-48 -107 -61 -17 -13 -34 -24 -37 -24 -3 0 -6 17 -6 38 0 44 29 129 58 169 34
49 120 123 165 143 56 26 65 25 34 -4z m1928 -434 c-18 -93 -39 -137 -80 -162
-35 -22 -75 -27 -75 -9 0 6 11 25 24 42 13 18 29 42 35 55 21 40 -6 23 -45
-28 -46 -61 -65 -65 -57 -12 10 67 33 94 112 134 41 21 79 42 85 48 15 15 15
9 1 -68z m-1317 -318 c1 -53 -3 -105 -9 -116 -16 -30 -3 -33 17 -3 13 21 17
46 16 116 -1 68 2 89 12 89 21 0 64 -49 77 -87 12 -37 5 -141 -11 -172 -5 -9
-23 -54 -40 -101 -18 -47 -41 -106 -51 -132 -10 -26 -19 -55 -19 -65 -1 -28
-48 54 -65 114 -9 29 -15 90 -15 145 0 77 5 107 29 173 23 65 53 135 57 135 0
0 1 -43 2 -96z m-1545 9 c45 -7 183 -92 152 -93 -11 -1 -77 -1 -147 0 -83 1
-128 -3 -128 -10 0 -6 50 -10 145 -10 111 0 145 -3 145 -13 0 -25 -32 -58 -83
-84 -41 -21 -67 -26 -122 -27 -101 0 -177 28 -297 109 l-50 33 38 11 c22 6 43
11 47 11 5 0 23 6 40 14 37 17 143 53 172 59 32 7 47 7 88 0z m2930 -18 c20
-3 45 -15 56 -26 30 -32 69 -111 85 -170 8 -30 17 -62 21 -71 10 -25 -10 -23
-104 7 -103 34 -148 72 -166 143 -11 40 -11 59 -3 77 17 38 33 30 72 -34 20
-32 43 -62 51 -65 23 -9 18 10 -18 61 -19 27 -37 56 -40 66 -4 9 -16 17 -27
17 -12 0 -19 4 -15 10 3 6 14 6 28 0 12 -5 39 -11 60 -15z m-496 0 c1 -5 -15
-18 -37 -27 -22 -9 -43 -24 -46 -33 -12 -29 5 -28 41 4 63 55 77 30 20 -36
-24 -28 -56 -49 -102 -69 -37 -15 -78 -35 -91 -42 -12 -8 -26 -12 -30 -8 -11
11 47 113 87 152 58 58 147 91 158 59z m89 -256 c14 -15 20 -40 22 -93 4 -67
1 -81 -33 -157 -20 -46 -41 -95 -47 -109 l-10 -25 -13 26 c-15 28 -48 123 -64
183 -8 30 -6 47 6 80 20 52 61 108 74 101 5 -4 9 -42 9 -86 0 -46 4 -79 10
-79 6 0 10 37 10 90 0 50 4 90 8 90 5 0 17 -9 28 -21z m-2517 -394 c44 -15
101 -51 101 -64 0 -4 -34 -7 -75 -6 -59 0 -78 -4 -92 -18 -17 -18 -17 -18 7
-13 62 12 180 16 180 6 0 -18 -45 -29 -122 -31 -93 -2 -168 25 -222 80 l-38
39 58 7 c33 3 68 7 79 9 48 8 85 5 124 -9z m-517 -230 c62 -19 126 -96 113
-135 -5 -17 -16 -20 -74 -20 -79 0 -161 25 -225 69 -44 31 -96 85 -96 101 0
21 197 10 282 -15z m1578 -142 c0 -15 -16 -30 -57 -56 -41 -26 -59 -44 -51
-52 10 -10 109 62 117 85 12 32 13 6 2 -43 -17 -70 -62 -104 -209 -152 -45
-15 -99 -38 -119 -52 -19 -13 -37 -23 -38 -21 -2 2 5 26 15 55 42 120 133 205
247 232 49 11 93 13 93 4z m-1009 -104 c-29 -23 -50 -43 -47 -46 6 -6 56 21
85 46 13 12 28 21 34 21 17 0 -4 -55 -31 -78 -26 -22 -40 -29 -142 -74 -25
-10 -55 -24 -67 -30 -26 -13 -41 -5 -26 14 5 7 17 34 26 59 29 76 99 128 176
129 l44 0 -52 -41z m-416 -9 c29 -56 11 -174 -46 -298 -10 -23 -19 -50 -19
-60 -1 -37 -40 31 -66 114 l-27 85 35 76 c43 95 64 108 55 34 -3 -28 -2 -51 2
-51 12 0 19 21 27 80 8 57 17 62 39 20z m1533 -10 c20 -13 42 -39 55 -68 20
-42 22 -63 22 -215 l0 -168 -22 27 c-51 64 -98 189 -108 285 l-6 64 22 -37
c13 -21 29 -38 36 -38 20 0 16 11 -22 59 -69 87 -56 139 23 91z m-1875 -57 c4
-3 -41 -33 -100 -65 -123 -67 -133 -75 -110 -84 10 -3 56 16 117 50 143 78
141 78 126 18 -17 -63 -30 -86 -78 -138 -60 -66 -116 -82 -300 -90 -102 -4
-170 -12 -205 -24 -29 -9 -53 -15 -53 -12 0 2 17 32 37 66 49 81 128 163 183
191 76 38 227 80 320 88 19 2 40 5 46 5 6 1 14 -1 17 -5z m778 -270 c-16 -37
-33 -81 -36 -98 -14 -58 21 -5 58 89 l35 88 17 -26 c13 -20 16 -41 13 -89 -3
-56 -12 -78 -64 -171 -33 -60 -65 -108 -70 -108 -12 0 -52 103 -63 166 -15 84
35 182 114 224 30 16 29 0 -4 -75z m939 -189 c0 -4 -16 -38 -35 -75 -35 -69
-45 -103 -25 -83 6 6 28 44 50 84 l38 74 12 -42 c6 -23 8 -58 4 -77 -5 -29
-86 -171 -113 -198 -13 -13 -50 62 -57 116 -9 63 12 125 56 169 33 33 70 50
70 32z"/>
<path d="M15250 8712 c0 -17 124 -135 128 -122 2 6 -22 39 -54 71 -56 56 -74
69 -74 51z"/>
<path d="M13186 6468 c-18 -25 -20 -38 -8 -38 4 0 16 14 25 30 21 35 6 41 -17
8z"/>
<path d="M11365 4590 c-4 -6 7 -15 22 -21 15 -6 45 -19 65 -30 41 -21 62 -9
26 15 -37 24 -107 46 -113 36z"/>
<path d="M4390 11053 c0 -5 -7 -48 -16 -98 -46 -272 -56 -332 -61 -357 -5 -24
-1 -28 37 -38 53 -14 60 -7 27 28 -24 25 -27 35 -27 103 0 40 4 79 8 85 11 18
597 -88 632 -115 l28 -20 6 31 c8 40 8 83 -1 91 -3 4 -14 0 -24 -9 -16 -14
-37 -12 -261 26 -134 23 -271 47 -306 52 l-63 11 6 41 c11 67 40 123 73 140
47 25 45 33 -8 35 -28 1 -50 -2 -50 -6z"/>
<path d="M4270 10160 c0 -54 9 -62 32 -27 15 21 22 22 169 25 85 1 207 -1 272
-5 l117 -8 -117 -84 c-364 -261 -465 -336 -473 -352 -6 -10 -10 -29 -10 -44
l0 -26 31 23 c27 20 44 23 153 26 192 5 468 -13 482 -32 19 -26 24 -19 24 34
0 28 -3 50 -6 50 -3 0 -14 -10 -24 -22 -17 -22 -24 -23 -147 -20 -70 1 -193 6
-272 10 l-144 7 306 219 c168 121 304 223 302 226 -2 4 -146 10 -320 13 -259
5 -320 9 -338 22 -33 23 -37 19 -37 -35z"/>
<path d="M4875 9337 c11 -7 36 -28 56 -47 30 -29 39 -48 53 -109 26 -113 32
-199 15 -206 -14 -5 -293 -45 -314 -45 -7 0 -16 38 -23 89 -17 128 -16 161 9
187 l21 23 -53 -1 c-30 0 -58 -3 -62 -6 -5 -2 3 -17 18 -32 20 -20 31 -50 45
-121 23 -110 24 -138 8 -144 -18 -6 -282 -44 -285 -41 -7 7 -23 149 -23 206 0
71 21 119 60 140 12 6 20 14 17 16 -6 6 -99 -16 -110 -26 -5 -4 -2 -45 7 -91
8 -46 20 -129 26 -184 6 -55 16 -112 22 -127 11 -29 28 -38 28 -15 0 25 43 34
319 73 218 30 276 35 292 26 10 -7 23 -12 28 -12 13 0 3 86 -47 410 l-7 45
-60 2 c-50 1 -57 -1 -40 -10z"/>
<path d="M4798 8509 c-66 -15 -154 -67 -195 -113 -85 -97 -93 -220 -28 -431
40 -129 50 -148 59 -118 9 27 19 31 293 116 282 89 299 93 319 76 8 -6 17 -9
20 -6 6 6 -59 219 -87 284 -21 49 -86 124 -135 154 -69 42 -166 57 -246 38z
m207 -50 c59 -15 128 -76 159 -142 31 -66 56 -161 49 -187 -5 -20 -22 -26
-453 -161 -74 -23 -140 -44 -146 -46 -12 -4 -49 114 -59 187 -14 101 60 238
162 301 79 49 202 70 288 48z"/>
<path d="M5215 7656 c-22 -7 -117 -52 -212 -100 -121 -62 -180 -87 -200 -84
-39 4 -40 -19 -4 -62 l30 -35 1 35 c0 35 2 37 123 102 229 125 273 143 352
143 85 0 133 -25 169 -88 69 -119 43 -237 -66 -310 -85 -56 -377 -198 -401
-195 -29 4 -30 -3 -5 -59 l21 -47 19 27 c12 16 84 60 186 113 220 114 259 139
290 188 37 60 37 159 -2 238 -31 66 -76 115 -123 134 -40 17 -124 17 -178 0z"/>
<path d="M5870 6882 c0 -27 -43 -63 -289 -242 l-224 -162 -19 23 c-50 64 -77
166 -48 184 6 3 10 10 10 15 0 5 -16 0 -35 -11 -20 -12 -35 -29 -35 -39 0 -11
34 -65 75 -122 42 -57 101 -139 132 -183 32 -44 62 -83 67 -87 12 -8 69 25 74
42 3 8 -7 9 -30 5 -29 -6 -39 -1 -78 33 -25 22 -53 53 -62 69 l-17 29 127 92
c70 50 183 132 252 181 84 61 134 91 153 91 15 0 27 2 27 5 0 10 -64 95 -72
95 -4 0 -8 -8 -8 -18z"/>
<path d="M6194 6390 c-41 -9 -96 -43 -111 -69 -34 -55 -26 -119 36 -291 47
-130 38 -198 -32 -240 -41 -25 -66 -25 -122 1 -91 43 -153 178 -114 251 16 30
5 32 -30 3 -36 -31 -38 -53 -11 -111 49 -101 161 -184 247 -184 46 0 106 34
133 76 29 43 25 113 -11 214 -67 185 -68 243 -2 300 32 29 41 32 84 28 128
-13 212 -166 166 -302 -9 -25 -12 -46 -8 -46 4 0 24 19 45 43 41 47 41 56 1
144 -55 121 -179 205 -271 183z"/>
<path d="M7087 5651 c-6 -44 -261 -463 -316 -519 -18 -18 -31 -34 -30 -36 2
-1 21 -12 42 -24 40 -23 60 -22 51 2 -3 8 2 29 11 48 24 47 126 208 132 208 3
0 17 -9 31 -21 15 -11 89 -59 165 -106 75 -47 137 -89 137 -94 0 -9 -98 -169
-123 -200 -6 -9 -22 -21 -34 -28 -27 -14 -29 -29 -5 -38 9 -3 29 -15 44 -25
35 -24 38 -23 38 16 0 45 289 512 326 526 33 13 30 23 -14 54 -41 28 -64 34
-56 13 8 -22 -13 -65 -88 -185 -43 -68 -76 -111 -83 -108 -7 2 -85 50 -174
106 -155 98 -161 103 -148 124 7 11 42 68 77 124 40 64 75 109 92 118 15 8 28
16 28 19 0 4 -88 65 -94 65 -2 0 -6 -17 -9 -39z"/>
<path d="M7996 5173 c4 -10 7 -29 6 -43 -1 -24 -216 -547 -232 -563 -12 -14
-108 33 -135 65 -14 16 -25 38 -25 48 0 30 -19 33 -31 6 -13 -27 -5 -76 12
-76 11 0 45 -14 289 -114 74 -31 138 -56 141 -56 4 0 12 12 17 28 5 15 13 35
17 45 7 17 5 17 -26 -2 -41 -25 -84 -27 -141 -4 -64 24 -68 29 -53 61 7 15 55
126 105 247 108 258 114 272 148 307 24 26 24 28 6 33 -10 4 -34 13 -52 21
-44 19 -56 18 -46 -3z"/>
<path d="M8584 4925 c-68 -34 -112 -100 -126 -192 -10 -61 -9 -73 9 -114 40
-89 133 -131 234 -105 30 8 55 13 56 12 5 -5 -46 -78 -83 -118 -63 -67 -125
-114 -198 -149 -93 -44 -83 -56 12 -13 143 65 237 138 305 238 49 72 72 132
81 207 14 110 -24 191 -109 234 -64 32 -117 32 -181 0z m131 -5 c23 -11 52
-35 66 -52 22 -30 24 -43 24 -133 0 -116 -21 -189 -58 -199 -43 -11 -113 -6
-147 12 -20 11 -46 38 -60 63 -21 37 -25 57 -24 119 0 107 40 179 110 200 42
12 44 12 89 -10z"/>
<path d="M9495 4878 c-151 -66 -253 -147 -300 -238 -23 -44 -23 -129 0 -164
21 -32 75 -66 104 -66 33 0 25 -14 -24 -46 -30 -19 -52 -43 -67 -73 -20 -41
-20 -47 -7 -85 21 -61 69 -89 140 -83 51 4 168 52 156 63 -3 3 -18 -1 -34 -9
-84 -43 -183 -24 -203 39 -24 71 18 141 107 180 29 13 53 26 53 29 0 3 -24 2
-53 -1 -51 -6 -55 -5 -91 30 l-38 35 4 75 c3 70 6 77 49 133 56 72 121 122
224 172 95 47 80 53 -20 9z"/>
</g>
</svg>
